# xmcd
#
# Track frame offsets: 
#        150
#        9591
#        23006
#        35059
#        45951
#        62303
#        76441
#        87979
#        99547
#        113659
#        124517
#        134709
#
# Disc length: 1957 seconds
#
# Revision: 0
# Processed by: cddbd v1.5.2PL0 Copyright (c) Steve Scherf et al.
# Submitted via: ExactAudioCopy v1.0b1
#
DISCID=8e07a30c
DTITLE=Country Gentlemen - The Award Winning Country Gentlemen
DYEAR=1971
DGENRE=Bluegrass
TTITLE0=Walkin' down the line
TTITLE1=The legend of the rebel soldier
TTITLE2=Redwood Hill
TTITLE3=C. G. Express
TTITLE4=Little Bessie
TTITLE5=The Old Pine Tree
TTITLE6=The Son of Hickory Holler's Tramp
TTITLE7=Country Roads
TTITLE8=Secret of the waterfall
TTITLE9=Breakin' it down
TTITLE10=Get In Line Buddy
TTITLE11=New Freedom Bell
EXTD=
EXTT0=
EXTT1=
EXTT2=
EXTT3=
EXTT4=
EXTT5=
EXTT6=
EXTT7=
EXTT8=
EXTT9=
EXTT10=
EXTT11=
PLAYORDER=
